<svg aria-hidden="true" style="width:0;height:0;position:absolute;overflow:hidden" xmlns="http://www.w3.org/2000/svg"><defs><symbol id="icon-film" viewBox="0 0 32 32"><path stroke-linejoin="round" stroke-linecap="round" stroke-width="2.667" d="M26.427 2.667H5.574a2.907 2.907 0 0 0-2.907 2.907v20.853a2.907 2.907 0 0 0 2.907 2.907h20.853a2.907 2.907 0 0 0 2.907-2.907V5.574a2.907 2.907 0 0 0-2.907-2.907zM9.333 2.667v26.667M22.667 2.667v26.667M2.667 16h26.667M2.667 9.333h6.667M2.667 22.667h6.667M22.667 22.667h6.667M22.667 9.333h6.667"/></symbol><symbol id="icon-search" viewBox="0 0 32 32"><path d="m31.008 27.231-7.58-6.447c-.784-.705-1.622-1.029-2.299-.998a11.954 11.954 0 0 0 2.87-7.787c0-6.627-5.373-12-12-12s-12 5.373-12 12 5.373 12 12 12c2.972 0 5.691-1.081 7.787-2.87-.031.677.293 1.515.998 2.299l6.447 7.58c1.104 1.226 2.907 1.33 4.007.23s.997-2.903-.23-4.007zM12 20a8 8 0 1 1 0-16 8 8 0 0 1 0 16z"/></symbol><symbol id="icon-close" viewBox="5 0 25 25"><path style="stroke:var(--color2,#d41443)" stroke-width="1.333" d="M7.012 1.333 24.987 20M6.667 19.654 25.334 1.679"/></symbol><symbol id="icon-moon" viewBox="0 0 32 32"><path d="M16.128 31.453c-5.902 0-11.591-3.255-14.409-8.881A16.026 16.026 0 0 1 8.366 1.273L9.692.547l-.396 1.459a14.772 14.772 0 0 0 1.051 10.491 14.697 14.697 0 0 0 8.56 7.415 14.708 14.708 0 0 0 11.297-.809c.161-.08.317-.166.472-.252l1.326-.727-.376 1.449a16.104 16.104 0 0 1-8.321 10.179 16.014 16.014 0 0 1-7.177 1.701zM7.722 3.176a14.737 14.737 0 0 0-4.851 18.82c3.653 7.296 12.56 10.258 19.857 6.606a14.816 14.816 0 0 0 7.193-7.95 15.964 15.964 0 0 1-11.421.481 15.977 15.977 0 0 1-9.305-8.06 16.047 16.047 0 0 1-1.473-9.897z"/></symbol><symbol id="icon-sun" viewBox="0 0 32 32"><path d="m11.144 2.928.988 2.384-.954.395-.988-2.384.954-.395zM3.321 10.19l2.384.988-.395.954-2.384-.988.395-.954zM2.93 20.859l2.384-.988.395.954-2.384.988-.395-.954zM11.142 29.075l-.954-.395.988-2.384.954.395-.988 2.384zM20.858 29.069l-.988-2.384.954-.395.988 2.384-.954.395zM28.677 21.81l-2.384-.988.395-.954 2.384.988-.395.954zM29.07 11.145l-2.384.988-.395-.954 2.384-.988.395.954zM20.855 2.926l.954.395-.988 2.384-.954-.395.988-2.384zM16 5.677C10.308 5.677 5.677 10.308 5.677 16S10.308 26.323 16 26.323 26.323 21.692 26.323 16 21.692 5.677 16 5.677zm0 19.613c-5.123 0-9.29-4.168-9.29-9.29S10.878 6.71 16 6.71s9.29 4.168 9.29 9.29-4.168 9.29-9.29 9.29zM15.484 0h1.032v4.645h-1.032V0zM5.051 4.321l3.285 3.285-.73.73-3.285-3.285.73-.73zM0 15.484h4.645v1.032H0v-1.032zM5.051 27.679l-.73-.73 3.285-3.285.73.73-3.285 3.285zM15.484 27.355h1.032V32h-1.032v-4.645zM26.947 27.68l-3.285-3.285.73-.73 3.285 3.285-.73.73zM27.355 15.484H32v1.032h-4.645v-1.032zM26.949 4.321l.73.73-3.285 3.285-.73-.73 3.285-3.285z"/></symbol><symbol id="icon-back" viewBox="0 0 24 24"><path d="M6.028 0v6.425L11.577 12l-5.549 5.575V24l11.944-12z"/></symbol><symbol id="icon-next" viewBox="0 0 24 24"><path d="M6.028 0v6.425L11.577 12l-5.549 5.575V24l11.944-12z"/></symbol><symbol id="icon-heart" viewBox="0 0 14 14"><path d="m7 12.88-.98-.98C2.38 8.68 0 6.51 0 3.85 0 1.68 1.68 0 3.85 0 5.04 0 6.23.56 7 1.47 7.77.56 8.96 0 10.15 0 12.32 0 14 1.68 14 3.85c0 2.66-2.38 4.83-6.02 8.05l-.98.98Z"/></symbol></defs></svg>