<svg aria-hidden="true" style="position:absolute;width:0;height:0;overflow:hidden" xmlns="http://www.w3.org/2000/svg">
    <defs>
        <!-- header-main -->
        <symbol id="icon-film" viewBox="0 0 32 32">
            <path stroke-linejoin="round" stroke-linecap="round" stroke-miterlimit="4" stroke-width="2.6667"
                d="M26.427 2.667h-20.853c-1.605 0-2.907 1.301-2.907 2.907v20.853c0 1.605 1.301 2.907 2.907 2.907h20.853c1.605 0 2.907-1.301 2.907-2.907v-20.853c0-1.605-1.301-2.907-2.907-2.907z">
            </path>
            <path stroke-linejoin="round" stroke-linecap="round" stroke-miterlimit="4" stroke-width="2.6667"
                d="M9.333 2.667v26.667"></path>
            <path stroke-linejoin="round" stroke-linecap="round" stroke-miterlimit="4" stroke-width="2.6667"
                d="M22.667 2.667v26.667"></path>
            <path stroke-linejoin="round" stroke-linecap="round" stroke-miterlimit="4" stroke-width="2.6667"
                d="M2.667 16h26.667"></path>
            <path stroke-linejoin="round" stroke-linecap="round" stroke-miterlimit="4" stroke-width="2.6667"
                d="M2.667 9.333h6.667"></path>
            <path stroke-linejoin="round" stroke-linecap="round" stroke-miterlimit="4" stroke-width="2.6667"
                d="M2.667 22.667h6.667"></path>
            <path stroke-linejoin="round" stroke-linecap="round" stroke-miterlimit="4" stroke-width="2.6667"
                d="M22.667 22.667h6.667"></path>
            <path stroke-linejoin="round" stroke-linecap="round" stroke-miterlimit="4" stroke-width="2.6667"
                d="M22.667 9.333h6.667"></path>
        </symbol>

        <symbol id="icon-search" viewBox="0 0 32 32">
            <path
                d="M31.008 27.231l-7.58-6.447c-0.784-0.705-1.622-1.029-2.299-0.998 1.789-2.096 2.87-4.815 2.87-7.787 0-6.627-5.373-12-12-12s-12 5.373-12 12 5.373 12 12 12c2.972 0 5.691-1.081 7.787-2.87-0.031 0.677 0.293 1.515 0.998 2.299l6.447 7.58c1.104 1.226 2.907 1.33 4.007 0.23s0.997-2.903-0.23-4.007zM12 20c-4.418 0-8-3.582-8-8s3.582-8 8-8 8 3.582 8 8-3.582 8-8 8z">
            </path>
        </symbol>

        <symbol id="icon-close" viewBox="5 0 25 25">
            <path style="stroke: var(--color2, #d41443)" stroke-linejoin="miter" stroke-linecap="butt"
                stroke-miterlimit="4" stroke-width="1.3333" d="M7.012 1.333l17.975 18.667"></path>
            <path style="stroke: var(--color2, #d41443)" stroke-linejoin="miter" stroke-linecap="butt"
                stroke-miterlimit="4" stroke-width="1.3333" d="M6.667 19.654l18.667-17.975">
            </path>
        </symbol>

        <symbol id="icon-moon" viewBox="0 0 32 32">
            <path
                d="M16.128 31.453c-5.902 0-11.591-3.255-14.409-8.881-3.889-7.77-0.97-17.125 6.647-21.299l1.326-0.726-0.396 1.459c-0.952 3.512-0.578 7.238 1.051 10.491 1.769 3.534 4.81 6.168 8.56 7.415 3.751 1.247 7.762 0.96 11.297-0.809v0c0.161-0.080 0.317-0.166 0.472-0.252l1.326-0.727-0.376 1.449c-1.199 4.422-4.231 8.131-8.321 10.179-2.306 1.154-4.76 1.7-7.177 1.701zM7.722 3.176c-6.056 4.136-8.207 12.119-4.851 18.82 3.653 7.296 12.56 10.258 19.857 6.606 3.316-1.661 5.878-4.511 7.193-7.95-3.623 1.561-7.644 1.738-11.421 0.481-4.077-1.356-7.381-4.218-9.305-8.060-1.54-3.075-2.047-6.537-1.473-9.897z">
            </path>
        </symbol>

        <symbol id="icon-sun" viewBox="0 0 32 32">
            <path d="M11.144 2.928l0.988 2.384-0.954 0.395-0.988-2.384 0.954-0.395z"></path>
            <path d="M3.321 10.19l2.384 0.988-0.395 0.954-2.384-0.988 0.395-0.954z"></path>
            <path d="M2.93 20.859l2.384-0.988 0.395 0.954-2.384 0.988-0.395-0.954z"></path>
            <path d="M11.142 29.075l-0.954-0.395 0.988-2.384 0.954 0.395-0.988 2.384z"></path>
            <path d="M20.858 29.069l-0.988-2.384 0.954-0.395 0.988 2.384-0.954 0.395z"></path>
            <path d="M28.677 21.81l-2.384-0.988 0.395-0.954 2.384 0.988-0.395 0.954z"></path>
            <path d="M29.070 11.145l-2.384 0.988-0.395-0.954 2.384-0.988 0.395 0.954z"></path>
            <path d="M20.855 2.926l0.954 0.395-0.988 2.384-0.954-0.395 0.988-2.384z"></path>
            <path
                d="M16 5.677c-5.692 0-10.323 4.631-10.323 10.323s4.631 10.323 10.323 10.323 10.323-4.631 10.323-10.323-4.631-10.323-10.323-10.323zM16 25.29c-5.123 0-9.29-4.168-9.29-9.29s4.168-9.29 9.29-9.29 9.29 4.168 9.29 9.29-4.168 9.29-9.29 9.29z">
            </path>
            <path d="M15.484 0h1.032v4.645h-1.032v-4.645z"></path>
            <path d="M5.051 4.321l3.285 3.285-0.73 0.73-3.285-3.285 0.73-0.73z"></path>
            <path d="M0 15.484h4.645v1.032h-4.645v-1.032z"></path>
            <path d="M5.051 27.679l-0.73-0.73 3.285-3.285 0.73 0.73-3.285 3.285z"></path>
            <path d="M15.484 27.355h1.032v4.645h-1.032v-4.645z"></path>
            <path d="M26.947 27.68l-3.285-3.285 0.73-0.73 3.285 3.285-0.73 0.73z"></path>
            <path d="M27.355 15.484h4.645v1.032h-4.645v-1.032z"></path>
            <path d="M26.949 4.321l0.73 0.73-3.285 3.285-0.73-0.73 3.285-3.285z"></path>
        </symbol>

        <!-- modal slider -->
        <symbol id="icon-back" viewBox="0 0 24 24">
            <path d="M6.028 0v6.425l5.549 5.575-5.549 5.575v6.425l11.944-12z">
            </path>
        </symbol>

        <symbol id="icon-next" viewBox="0 0 24 24">
            <path d="M6.028 0v6.425l5.549 5.575-5.549 5.575v6.425l11.944-12z">
            </path>
        </symbol>

        <!-- footer -->
        <symbol id="icon-heart" viewBox="0 0 14 14">
            <path
                d="m7 12.88-.98-.98C2.38 8.68 0 6.51 0 3.85 0 1.68 1.68 0 3.85 0 5.04 0 6.23.56 7 1.47 7.77.56 8.96 0 10.15 0 12.32 0 14 1.68 14 3.85c0 2.66-2.38 4.83-6.02 8.05l-.98.98Z">
            </path>
        </symbol>
    </defs>
</svg>