<svg aria-hidden="true" style="position:absolute;width:0;height:0;overflow:hidden" xmlns="http://www.w3.org/2000/svg">
    <defs>
        <symbol id="icon-close" viewBox="0 0 32 32">
            <path fill="none" stroke="#fff" style="stroke: var(--color2, #d41443)" stroke-linejoin="miter"
                stroke-linecap="butt" stroke-miterlimit="4" stroke-width="1.3333" d="M7.012 1.333l17.975 18.667"></path>
            <path fill="none" stroke="#fff" style="stroke: var(--color2, #d41443)" stroke-linejoin="miter"
                stroke-linecap="butt" stroke-miterlimit="4" stroke-width="1.3333" d="M6.667 19.654l18.667-17.975">
            </path>
        </symbol>

        <symbol id="icon-close" viewBox="0 0 32 32">
            <path fill="#d41443" style="fill: var(--color1, #d41443); stroke: var(--color1, #d41443)" stroke="#d41443"
                stroke-linejoin="miter" stroke-linecap="butt" stroke-miterlimit="4" stroke-width="2"
                d="M2.518 2l26.963 28"></path>
            <path fill="#d41443" style="fill: var(--color1, #d41443); stroke: var(--color1, #d41443)" stroke="#d41443"
                stroke-linejoin="miter" stroke-linecap="butt" stroke-miterlimit="4" stroke-width="2"
                d="M2 29.481l28-26.963"></path>
        </symbol>

        <symbol id="icon-person" viewBox="0 0 32 32">
            <path
                d="M16 16c2.947 0 5.333-2.387 5.333-5.333s-2.387-5.333-5.333-5.333c-2.947 0-5.333 2.387-5.333 5.333s2.387 5.333 5.333 5.333zM16 18.667c-3.56 0-10.667 1.787-10.667 5.333v1.333c0 0.733 0.6 1.333 1.333 1.333h18.667c0.733 0 1.333-0.6 1.333-1.333v-1.333c0-3.547-7.107-5.333-10.667-5.333z">
            </path>
        </symbol>

    </defs>
</svg>